<svg width="34" height="42" viewBox="0 0 34 42" fill="none" xmlns="http://www.w3.org/2000/svg">
<path d="M31.1083 36.7476C29.369 39.3514 27.525 41.8922 24.7171 41.9342C21.9092 41.9972 21.0082 40.2753 17.8231 40.2753C14.617 40.2753 13.6322 41.8922 10.9709 41.9972C8.2259 42.1022 6.1514 39.2254 4.39122 36.6846C0.807987 31.4979 -1.93706 21.9435 1.75094 15.518C3.57399 12.3262 6.8429 10.3103 10.3842 10.2473C13.0664 10.2053 15.6229 12.0742 17.2783 12.0742C18.9127 12.0742 22.014 9.82735 25.262 10.1633C26.624 10.2263 30.4377 10.7093 32.8894 14.321C32.7008 14.447 28.3423 17.0089 28.3842 22.3215C28.447 28.6631 33.9371 30.784 34 30.805C33.9371 30.9519 33.1199 33.8288 31.1083 36.7476ZM19.1432 3.14979C20.6729 1.40691 23.2084 0.0839944 25.3039 0C25.5763 2.45684 24.5914 4.93467 23.1246 6.69855C21.6787 8.48344 19.2899 9.86934 16.943 9.68036C16.6287 7.26552 17.8021 4.74568 19.1432 3.14979Z" fill="#333333"/>
</svg>
