<svg width="42" height="42" viewBox="0 0 42 42" fill="none" xmlns="http://www.w3.org/2000/svg">
<path d="M34.0078 27.048V20.0703C34.0078 19.5416 33.7973 19.0345 33.4226 18.6607C33.0479 18.2868 32.5397 18.0767 32.0098 18.0767H30.0117C34.4873 14.867 35.5263 8.64699 32.3095 4.12151C29.0926 -0.304297 22.8587 -1.34097 18.3631 1.86873C17.0244 2.82566 15.9455 4.12151 15.2262 5.57684C10.5308 2.68611 4.37677 4.12151 1.4796 8.84635C-1.39759 13.5313 0.0410023 19.6716 4.75639 22.5623C5.17598 22.8016 5.59557 23.0608 6.03514 23.2202V40.0064C6.03514 40.5351 6.24565 41.0422 6.62036 41.4161C6.99507 41.79 7.50328 42 8.03319 42H32.0098C32.5397 42 33.0479 41.79 33.4226 41.4161C33.7973 41.0422 34.0078 40.5351 34.0078 40.0064V33.0288L42 41.0032V19.0735L34.0078 27.048ZM24.0176 6.11511C25.0774 6.11511 26.0938 6.53519 26.8432 7.28294C27.5926 8.03068 28.0137 9.04485 28.0137 10.1023C28.0137 11.1598 27.5926 12.174 26.8432 12.9217C26.0938 13.6695 25.0774 14.0895 24.0176 14.0895C22.9577 14.0895 21.9413 13.6695 21.1919 12.9217C20.4425 12.174 20.0215 11.1598 20.0215 10.1023C20.0215 9.04485 20.4425 8.03068 21.1919 7.28294C21.9413 6.53519 22.9577 6.11511 24.0176 6.11511ZM10.0312 10.1023C11.0911 10.1023 12.1075 10.5224 12.8569 11.2701C13.6063 12.0179 14.0273 13.0321 14.0273 14.0895C14.0273 15.147 13.6063 16.1612 12.8569 16.9089C12.1075 17.6567 11.0911 18.0767 10.0312 18.0767C8.97141 18.0767 7.95499 17.6567 7.20557 16.9089C6.45616 16.1612 6.03514 15.147 6.03514 14.0895C6.03514 13.0321 6.45616 12.0179 7.20557 11.2701C7.95499 10.5224 8.97141 10.1023 10.0312 10.1023Z" fill="#333333"/>
</svg>
