<svg width="42" height="42" viewBox="0 0 42 42" fill="none" xmlns="http://www.w3.org/2000/svg">
<path d="M6.53333 31.7059L3.5 28.6496L21.6067 10.4986L31.5 20.3907L13.3467 38.495L10.01 35.2054C9.42667 35.3687 8.86667 35.6487 8.47 36.1619C8.33 36.3253 8.16667 36.5119 8.16667 36.7219C7.98 37.0485 7.88667 37.3285 7.74667 37.6784C7.49 38.3083 7.21 38.9382 6.83667 39.4982C6.55667 39.8948 6.25333 40.2681 5.90333 40.5714C5.64667 40.828 5.34333 41.038 5.04 41.2013C4.85333 41.3179 4.66667 41.4346 4.43333 41.5046C3.03333 42.0878 1.47 41.9945 0 41.9945V37.3285C0.536667 37.3285 1.93667 37.3285 2.1 37.3285C2.33333 37.3285 2.52 37.3285 2.70667 37.1885C2.75333 37.1418 2.77667 37.1185 2.82333 37.0718C2.98667 36.8852 3.12667 36.6285 3.24333 36.3952C3.43 35.9753 3.57 35.5554 3.73333 35.1354L3.82667 34.9021C4.10667 34.2722 4.43333 33.7123 4.85333 33.199C5.08667 32.8957 5.36667 32.6624 5.64667 32.3591C5.92667 32.1258 6.20667 31.8925 6.53333 31.7059ZM42 0L39.3867 19.1075L22.89 2.61299L42 0Z" fill="#333333"/>
</svg>
