<svg width="42" height="38" viewBox="0 0 42 38" fill="none" xmlns="http://www.w3.org/2000/svg">
<path d="M38.1818 0H3.81818C2.80554 0 1.83437 0.400356 1.11832 1.11299C0.402272 1.82563 0 2.79218 0 3.8V34.2C0 35.2078 0.402272 36.1744 1.11832 36.887C1.83437 37.5996 2.80554 38 3.81818 38H38.1818C39.1945 38 40.1656 37.5996 40.8817 36.887C41.5977 36.1744 42 35.2078 42 34.2V3.8C42 2.79218 41.5977 1.82563 40.8817 1.11299C40.1656 0.400356 39.1945 0 38.1818 0ZM19.0909 29.45L16.2273 32.3L7.63636 23.75L16.2273 15.2L19.0909 18.05L13.3636 23.75L19.0909 29.45ZM25.7727 32.3L22.9091 29.45L28.6364 23.75L22.9091 18.05L25.7727 15.2L34.3636 23.75L25.7727 32.3ZM38.1818 9.5H3.81818V3.8H38.1818V9.5Z" fill="#333333"/>
</svg>
